<svg xmlns="http://www.w3.org/2000/svg" xmlns:xlink="http://www.w3.org/1999/xlink" width="1600" zoomAndPan="magnify" viewBox="0 0 1200 299.999988" height="400" preserveAspectRatio="xMidYMid meet" version="1.0"><defs><g/><clipPath id="5720a28af6"><rect x="0" width="1180" y="0" height="300"/></clipPath></defs><g transform="matrix(1, 0, 0, 1, 17, 0)"><g clip-path="url(#5720a28af6)"><g fill="#ffffff" fill-opacity="1"><g transform="translate(0.368078, 213.159705)"><g><path d="M 96.765625 0 L 42.4375 -61.140625 L 42.4375 0 L 19.453125 0 L 19.453125 -186.953125 L 42.4375 -186.953125 L 42.4375 -77.0625 L 95.75 -138.453125 L 127.84375 -138.453125 L 62.65625 -69.46875 L 128.09375 0 Z M 96.765625 0 "/></g></g></g><g fill="#ffffff" fill-opacity="1"><g transform="translate(105.214077, 213.159705)"><g><path d="M 145.78125 -74.53125 C 145.78125 -70.144531 145.523438 -65.515625 145.015625 -60.640625 L 34.359375 -60.640625 C 35.203125 -46.992188 39.875 -36.335938 48.375 -28.671875 C 56.882812 -21.003906 67.203125 -17.171875 79.328125 -17.171875 C 89.265625 -17.171875 97.554688 -19.488281 104.203125 -24.125 C 110.859375 -28.757812 115.535156 -34.953125 118.234375 -42.703125 L 143 -42.703125 C 139.289062 -29.390625 131.878906 -18.5625 120.765625 -10.21875 C 109.648438 -1.882812 95.835938 2.28125 79.328125 2.28125 C 66.191406 2.28125 54.441406 -0.664062 44.078125 -6.5625 C 33.722656 -12.457031 25.597656 -20.835938 19.703125 -31.703125 C 13.804688 -42.566406 10.859375 -55.15625 10.859375 -69.46875 C 10.859375 -83.789062 13.722656 -96.335938 19.453125 -107.109375 C 25.179688 -117.890625 33.222656 -126.1875 43.578125 -132 C 53.941406 -137.8125 65.859375 -140.71875 79.328125 -140.71875 C 92.460938 -140.71875 104.082031 -137.851562 114.1875 -132.125 C 124.300781 -126.40625 132.09375 -118.535156 137.5625 -108.515625 C 143.039062 -98.492188 145.78125 -87.164062 145.78125 -74.53125 Z M 122.03125 -79.328125 C 122.03125 -88.085938 120.09375 -95.625 116.21875 -101.9375 C 112.34375 -108.257812 107.078125 -113.0625 100.421875 -116.34375 C 93.773438 -119.625 86.40625 -121.265625 78.3125 -121.265625 C 66.695312 -121.265625 56.800781 -117.554688 48.625 -110.140625 C 40.457031 -102.734375 35.785156 -92.460938 34.609375 -79.328125 Z M 122.03125 -79.328125 "/></g></g></g><g fill="#ffffff" fill-opacity="1"><g transform="translate(236.587362, 213.159705)"><g><path d="M 70.984375 -21.21875 L 113.9375 -138.453125 L 138.453125 -138.453125 L 84.125 0 L 57.34375 0 L 3.03125 -138.453125 L 27.796875 -138.453125 Z M 70.984375 -21.21875 "/></g></g></g><g fill="#ffffff" fill-opacity="1"><g transform="translate(353.05479, 213.159705)"><g><path d="M 31.328125 -160.9375 C 26.953125 -160.9375 23.242188 -162.453125 20.203125 -165.484375 C 17.171875 -168.515625 15.65625 -172.21875 15.65625 -176.59375 C 15.65625 -180.976562 17.171875 -184.6875 20.203125 -187.71875 C 23.242188 -190.75 26.953125 -192.265625 31.328125 -192.265625 C 35.535156 -192.265625 39.113281 -190.75 42.0625 -187.71875 C 45.007812 -184.6875 46.484375 -180.976562 46.484375 -176.59375 C 46.484375 -172.21875 45.007812 -168.515625 42.0625 -165.484375 C 39.113281 -162.453125 35.535156 -160.9375 31.328125 -160.9375 Z M 42.4375 -138.453125 L 42.4375 0 L 19.453125 0 L 19.453125 -138.453125 Z M 42.4375 -138.453125 "/></g></g></g><g fill="#ffffff" fill-opacity="1"><g transform="translate(389.940682, 213.159705)"><g><path d="M 86.90625 -140.96875 C 103.75 -140.96875 117.390625 -135.875 127.828125 -125.6875 C 138.273438 -115.5 143.5 -100.804688 143.5 -81.609375 L 143.5 0 L 120.765625 0 L 120.765625 -78.3125 C 120.765625 -92.125 117.3125 -102.691406 110.40625 -110.015625 C 103.5 -117.347656 94.066406 -121.015625 82.109375 -121.015625 C 69.984375 -121.015625 60.335938 -117.222656 53.171875 -109.640625 C 46.015625 -102.066406 42.4375 -91.035156 42.4375 -76.546875 L 42.4375 0 L 19.453125 0 L 19.453125 -138.453125 L 42.4375 -138.453125 L 42.4375 -118.734375 C 46.988281 -125.816406 53.179688 -131.289062 61.015625 -135.15625 C 68.847656 -139.03125 77.476562 -140.96875 86.90625 -140.96875 Z M 86.90625 -140.96875 "/></g></g></g><g fill="#ffffff" fill-opacity="1"><g transform="translate(526.37007, 213.159705)"><g><path d="M 58.859375 -186.953125 L 58.859375 0 L 15.65625 0 L 15.65625 -186.953125 Z M 58.859375 -186.953125 "/></g></g></g><g fill="#ffffff" fill-opacity="1"><g transform="translate(575.635213, 213.159705)"><g><path d="M 148.546875 -72.765625 C 148.546875 -68.722656 148.296875 -64.507812 147.796875 -60.125 L 50.015625 -60.125 C 50.691406 -51.363281 53.515625 -44.664062 58.484375 -40.03125 C 63.453125 -35.40625 69.554688 -33.09375 76.796875 -33.09375 C 87.578125 -33.09375 95.070312 -37.640625 99.28125 -46.734375 L 145.265625 -46.734375 C 142.910156 -37.472656 138.65625 -29.132812 132.5 -21.71875 C 126.351562 -14.3125 118.648438 -8.503906 109.390625 -4.296875 C 100.128906 -0.0859375 89.769531 2.015625 78.3125 2.015625 C 64.507812 2.015625 52.21875 -0.925781 41.4375 -6.8125 C 30.65625 -12.707031 22.234375 -21.128906 16.171875 -32.078125 C 10.109375 -43.023438 7.078125 -55.828125 7.078125 -70.484375 C 7.078125 -85.140625 10.066406 -97.941406 16.046875 -108.890625 C 22.023438 -119.835938 30.398438 -128.257812 41.171875 -134.15625 C 51.953125 -140.050781 64.332031 -143 78.3125 -143 C 91.957031 -143 104.082031 -140.132812 114.6875 -134.40625 C 125.300781 -128.675781 133.597656 -120.503906 139.578125 -109.890625 C 145.554688 -99.285156 148.546875 -86.910156 148.546875 -72.765625 Z M 104.34375 -84.125 C 104.34375 -91.539062 101.816406 -97.4375 96.765625 -101.8125 C 91.710938 -106.195312 85.394531 -108.390625 77.8125 -108.390625 C 70.570312 -108.390625 64.46875 -106.28125 59.5 -102.0625 C 54.53125 -97.851562 51.457031 -91.875 50.28125 -84.125 Z M 104.34375 -84.125 "/></g></g></g><g fill="#ffffff" fill-opacity="1"><g transform="translate(705.998177, 213.159705)"><g><path d="M 86.40625 -105.09375 L 63.15625 -105.09375 L 63.15625 0 L 19.953125 0 L 19.953125 -105.09375 L 4.296875 -105.09375 L 4.296875 -140.96875 L 19.953125 -140.96875 L 19.953125 -145.015625 C 19.953125 -162.359375 24.921875 -175.535156 34.859375 -184.546875 C 44.796875 -193.566406 59.367188 -198.078125 78.578125 -198.078125 C 81.773438 -198.078125 84.128906 -197.988281 85.640625 -197.8125 L 85.640625 -161.1875 C 77.390625 -161.6875 71.578125 -160.503906 68.203125 -157.640625 C 64.835938 -154.785156 63.15625 -149.648438 63.15625 -142.234375 L 63.15625 -140.96875 L 86.40625 -140.96875 Z M 86.40625 -105.09375 "/></g></g></g><g fill="#ffffff" fill-opacity="1"><g transform="translate(771.68514, 213.159705)"><g><path d="M 7.078125 -70.734375 C 7.078125 -85.222656 9.8125 -97.941406 15.28125 -108.890625 C 20.757812 -119.835938 28.210938 -128.257812 37.640625 -134.15625 C 47.078125 -140.050781 57.601562 -143 69.21875 -143 C 79.15625 -143 87.867188 -140.976562 95.359375 -136.9375 C 102.859375 -132.894531 108.628906 -127.585938 112.671875 -121.015625 L 112.671875 -140.96875 L 155.875 -140.96875 L 155.875 0 L 112.671875 0 L 112.671875 -19.953125 C 108.460938 -13.390625 102.609375 -8.085938 95.109375 -4.046875 C 87.617188 -0.00390625 78.90625 2.015625 68.96875 2.015625 C 57.519531 2.015625 47.078125 -0.972656 37.640625 -6.953125 C 28.210938 -12.929688 20.757812 -21.4375 15.28125 -32.46875 C 9.8125 -43.5 7.078125 -56.253906 7.078125 -70.734375 Z M 112.671875 -70.484375 C 112.671875 -81.265625 109.679688 -89.769531 103.703125 -96 C 97.722656 -102.226562 90.441406 -105.34375 81.859375 -105.34375 C 73.265625 -105.34375 65.976562 -102.269531 60 -96.125 C 54.019531 -89.976562 51.03125 -81.515625 51.03125 -70.734375 C 51.03125 -59.960938 54.019531 -51.414062 60 -45.09375 C 65.976562 -38.78125 73.265625 -35.625 81.859375 -35.625 C 90.441406 -35.625 97.722656 -38.738281 103.703125 -44.96875 C 109.679688 -51.195312 112.671875 -59.703125 112.671875 -70.484375 Z M 112.671875 -70.484375 "/></g></g></g><g fill="#ffffff" fill-opacity="1"><g transform="translate(917.964282, 213.159705)"><g><path d="M 101.5625 -142.484375 C 118.070312 -142.484375 131.25 -137.132812 141.09375 -126.4375 C 150.945312 -115.75 155.875 -101.054688 155.875 -82.359375 L 155.875 0 L 112.9375 0 L 112.9375 -76.546875 C 112.9375 -85.984375 110.492188 -93.3125 105.609375 -98.53125 C 100.722656 -103.75 94.148438 -106.359375 85.890625 -106.359375 C 77.640625 -106.359375 71.070312 -103.75 66.1875 -98.53125 C 61.300781 -93.3125 58.859375 -85.984375 58.859375 -76.546875 L 58.859375 0 L 15.65625 0 L 15.65625 -140.96875 L 58.859375 -140.96875 L 58.859375 -122.28125 C 63.242188 -128.507812 69.140625 -133.429688 76.546875 -137.046875 C 83.960938 -140.671875 92.300781 -142.484375 101.5625 -142.484375 Z M 101.5625 -142.484375 "/></g></g></g><g fill="#ffffff" fill-opacity="1"><g transform="translate(1062.980279, 213.159705)"><g><path d="M 94.234375 -36.640625 L 94.234375 0 L 72.25 0 C 56.59375 0 44.382812 -3.828125 35.625 -11.484375 C 26.863281 -19.148438 22.484375 -31.660156 22.484375 -49.015625 L 22.484375 -105.09375 L 5.3125 -105.09375 L 5.3125 -140.96875 L 22.484375 -140.96875 L 22.484375 -175.328125 L 65.6875 -175.328125 L 65.6875 -140.96875 L 93.984375 -140.96875 L 93.984375 -105.09375 L 65.6875 -105.09375 L 65.6875 -48.5 C 65.6875 -44.289062 66.695312 -41.257812 68.71875 -39.40625 C 70.738281 -37.5625 74.109375 -36.640625 78.828125 -36.640625 Z M 94.234375 -36.640625 "/></g></g></g></g></g></svg>